<?xml version="1.0" encoding="UTF-8"?>
<svg version="1.1" xmlns="http://www.w3.org/2000/svg" width="192" height="192">
<path d="M0 0 C3.3515625 1.50390625 3.3515625 1.50390625 6.625 3.5625 C7.85479568 4.31184495 9.08662226 5.0578656 10.3203125 5.80078125 C10.93680664 6.17541504 11.55330078 6.55004883 12.18847656 6.93603516 C14.88874468 8.52198778 17.68393743 9.8824876 20.5 11.25 C26.83590765 14.36778261 33.04940726 17.68394528 39.25 21.0625 C40.16072266 21.55717773 41.07144531 22.05185547 42.00976562 22.56152344 C58.68530449 31.68530449 58.68530449 31.68530449 62 35 C62.26742554 37.8374176 62.26742554 37.8374176 62.29052734 41.51000977 C62.29724457 42.17859512 62.30396179 42.84718048 62.31088257 43.536026 C62.32993342 45.75456111 62.33379149 47.97279433 62.3359375 50.19140625 C62.34236497 51.73640568 62.34909329 53.28140389 62.35610962 54.82640076 C62.3681032 58.07220272 62.37178876 61.31789814 62.37060547 64.5637207 C62.37040317 68.70404677 62.39760233 72.84367949 62.43214989 76.9838419 C62.45450624 80.17967295 62.45844021 83.37534017 62.45738602 86.57124138 C62.45973282 88.09613349 62.46850405 89.62103075 62.48405075 91.14584541 C62.5609862 99.47807507 62.46260965 106.7089411 58 114 C57.6112973 114.65033707 57.2225946 115.30067413 56.82211304 115.97071838 C54.20783988 120.15697108 50.91743567 122.77489548 46.9140625 125.59375 C44.78129613 127.08641854 44.78129613 127.08641854 42.375 129.625 C39.78410915 132.21589085 37.13789253 134.11726448 34 136 C33.34 136 32.68 136 32 136 C32 136.66 32 137.32 32 138 C31.01 138 30.02 138 29 138 C29 138.66 29 139.32 29 140 C27.234375 141.26171875 27.234375 141.26171875 24.75 142.6875 C23.38875 143.47640625 23.38875 143.47640625 22 144.28125 C21.01 144.8484375 20.02 145.415625 19 146 C17.96875 146.6084375 16.9375 147.216875 15.875 147.84375 C12.92700902 149.58306468 9.98111575 151.31803169 7 153 C5.64648438 153.84498047 5.64648438 153.84498047 4.265625 154.70703125 C-0.88087011 156.74469857 -5.94451571 157.05705047 -11.23144531 155.22802734 C-13.44422726 154.15425222 -15.52499901 152.96755946 -17.625 151.6875 C-18.38844727 151.24325684 -19.15189453 150.79901367 -19.93847656 150.34130859 C-27.29793118 145.98729365 -34.34763138 141.1719212 -41.29492188 136.19238281 C-42.98483459 135.01060537 -44.71124879 133.90787577 -46.453125 132.8046875 C-47.29359375 132.20914063 -48.1340625 131.61359375 -49 131 C-49 130.34 -49 129.68 -49 129 C-49.61875 128.690625 -50.2375 128.38125 -50.875 128.0625 C-52.25 127.375 -53.625 126.6875 -55 126 C-55 125.34 -55 124.68 -55 124 C-55.57621094 123.75121094 -56.15242188 123.50242187 -56.74609375 123.24609375 C-59.34218661 121.81081884 -61.03281594 120.22514987 -63.0625 118.0625 C-63.73410156 117.37285156 -64.40570313 116.68320313 -65.09765625 115.97265625 C-70.72549089 107.17844236 -70.47483443 96.76636716 -70.46875 86.6640625 C-70.47586828 85.21202304 -70.48356965 83.75998634 -70.49182129 82.30795288 C-70.50516872 79.28741588 -70.50687591 76.26714001 -70.50097656 73.24658203 C-70.49504393 69.38279997 -70.52586132 65.52025869 -70.56609344 61.6567173 C-70.59195546 58.66776823 -70.59485018 55.67912045 -70.59120178 52.69007492 C-70.59288985 51.26513893 -70.60250232 49.84018857 -70.62034607 48.41536331 C-70.64253396 46.42758536 -70.62962407 44.43950986 -70.61523438 42.45166016 C-70.61728882 41.32345856 -70.61934326 40.19525696 -70.62145996 39.03286743 C-69.80112952 35.02946633 -68.09874472 33.57891799 -65 31 C-62.69472094 29.62342693 -60.45552942 28.38012335 -58.0625 27.1875 C-56.72035431 26.49673092 -55.37923048 25.80397328 -54.0390625 25.109375 C-53.36391602 24.76068359 -52.68876953 24.41199219 -51.99316406 24.05273438 C-48.92502383 22.43222719 -45.9338834 20.68606279 -42.9375 18.9375 C-37.25106877 15.63887409 -31.43405508 12.68420882 -25.5234375 9.80859375 C-23.03305293 8.53026997 -20.67309716 7.23443452 -18.2890625 5.78515625 C-17.67546875 5.41519531 -17.061875 5.04523437 -16.4296875 4.6640625 C-14.72794431 3.62533614 -13.03927747 2.56527354 -11.3515625 1.50390625 C-7.32197557 -0.30424173 -4.3409128 -0.76314826 0 0 Z M-10.25 16.0625 C-14.71832563 18.71790115 -19.20290702 21.1489127 -23.875 23.4375 C-30.12583848 26.50381788 -36.13239097 29.87607987 -42.13671875 33.3984375 C-45 35 -45 35 -48 36 C-48 36.66 -48 37.32 -48 38 C-32.31211778 45.23470494 -32.31211778 45.23470494 -16.40625 51.96875 C-14.05420878 52.97676766 -11.86355006 54.13878579 -9.625 55.375 C-5.44755824 57.24764631 -4.28669821 57.4288994 0 56 C1.66035827 55.26630828 3.31316846 54.51545093 4.9609375 53.75390625 C11.87296002 50.58710691 18.85100207 47.58046711 25.83398438 44.57421875 C30.62540449 42.50208098 35.36686855 40.40702585 40 38 C40 37.34 40 36.68 40 36 C38.90042969 35.41992188 37.80085938 34.83984375 36.66796875 34.2421875 C23.25045983 27.15607511 23.25045983 27.15607511 17.375 23.9375 C12.90104335 21.49026639 8.42491018 19.04747789 3.9375 16.625 C2.95305908 16.08734009 2.95305908 16.08734009 1.94873047 15.53881836 C-3.69771064 12.50202084 -4.85205113 12.77898832 -10.25 16.0625 Z M-57 48 C-57.07613917 55.72291745 -57.12863758 63.44573788 -57.16479492 71.16894531 C-57.1798702 73.79560971 -57.20033366 76.42224899 -57.22631836 79.04882812 C-57.26275576 82.82688604 -57.27973938 86.60461077 -57.29296875 90.3828125 C-57.30845261 91.55490265 -57.32393646 92.7269928 -57.33988953 93.93460083 C-57.34129004 100.7376933 -56.93971665 105.47234002 -52.4375 110.875 C-51.04172921 112.20543609 -51.04172921 112.20543609 -49 112 C-49 112.66 -49 113.32 -49 114 C-46.36315253 116.39820305 -46.36315253 116.39820305 -43 117 C-42.67 117.99 -42.34 118.98 -42 120 C-40.54813493 121.36699004 -40.54813493 121.36699004 -38.7109375 122.6015625 C-38.02354492 123.0877002 -37.33615234 123.57383789 -36.62792969 124.07470703 C-35.88446289 124.58630371 -35.14099609 125.09790039 -34.375 125.625 C-33.23659668 126.41753174 -33.23659668 126.41753174 -32.07519531 127.22607422 C-27.05964306 130.68065314 -21.9663107 133.98205769 -16.75 137.125 C-16.14333496 137.49061035 -15.53666992 137.8562207 -14.91162109 138.23291016 C-9.30417137 141.85152049 -9.30417137 141.85152049 -2.9609375 142.75 C9.5168135 137.97763308 20.61278461 129.83613787 31.375 122.0625 C32.03588623 121.58989746 32.69677246 121.11729492 33.37768555 120.63037109 C34.95723487 119.47131972 36.4845318 118.24166512 38 117 C38 116.34 38 115.68 38 115 C38.59554687 114.73703125 39.19109375 114.4740625 39.8046875 114.203125 C42.10511708 112.94239135 43.42244407 111.728887 45.125 109.75 C45.62257813 109.18796875 46.12015625 108.6259375 46.6328125 108.046875 C50.77147795 101.85070158 50.26207807 95.1956152 50.1953125 88.0390625 C50.1924826 86.89335785 50.18965271 85.7476532 50.18673706 84.56723022 C50.17557135 80.91971245 50.15047299 77.27244315 50.125 73.625 C50.11496555 71.14713897 50.10584051 68.66927408 50.09765625 66.19140625 C50.0756438 60.12751986 50.04220194 54.06377769 50 48 C46.86773585 48.55720761 44.08786062 49.25449423 41.1875 50.5625 C40.135625 51.036875 39.08375 51.51125 38 52 C37.99589111 53.04865234 37.99178223 54.09730469 37.98754883 55.17773438 C37.96563967 59.0994461 37.91123036 63.02017121 37.84741211 66.94140625 C37.82433413 68.6327157 37.80986049 70.32416678 37.80444336 72.015625 C37.73525432 90.06864172 37.73525432 90.06864172 32 96 C30.99259766 97.11375 30.99259766 97.11375 29.96484375 98.25 C5.38580141 119.46659146 5.38580141 119.46659146 -4.53515625 118.83984375 C-17.86056647 114.29949003 -36.99802468 103.80252368 -43.59448242 90.87524414 C-45.27560075 86.79392711 -45.47340974 83.033391 -45.51171875 78.66015625 C-45.52966995 77.89319931 -45.54762115 77.12624237 -45.56611633 76.33604431 C-45.6198448 73.91158374 -45.65399275 71.48731568 -45.6875 69.0625 C-45.72070634 67.40817654 -45.75519902 65.75387838 -45.79101562 64.09960938 C-45.87554886 60.06654607 -45.94253679 56.03353612 -46 52 C-47.4562545 51.32880451 -48.91507867 50.66318193 -50.375 50 C-51.18710937 49.62875 -51.99921875 49.2575 -52.8359375 48.875 C-54.91998433 47.87504987 -54.91998433 47.87504987 -57 48 Z M-34 58 C-34.08751413 61.87485635 -34.14056435 65.74945643 -34.1875 69.625 C-34.21263672 70.71941406 -34.23777344 71.81382813 -34.26367188 72.94140625 C-34.43753288 80.95985295 -34.43753288 80.95985295 -31 88 C-28.57749905 90.23278041 -25.99454617 92.15378945 -23.3125 94.0625 C-22.62994141 94.56587891 -21.94738281 95.06925781 -21.24414062 95.58789062 C-13.71754275 101.87872101 -13.71754275 101.87872101 -5 105 C-5 93.45 -5 81.9 -5 70 C-12.07875759 67.05051767 -19.15737317 64.10307165 -26.25 61.1875 C-27.38501953 60.72053711 -27.38501953 60.72053711 -28.54296875 60.24414062 C-30.3618806 59.49585411 -32.18092501 58.74788984 -34 58 Z " fill="#433DFF" transform="translate(100,18)"/>
</svg>
